<?xml version="1.0" encoding="UTF-8"?>
<svg width="100px" height="100px" viewBox="0 0 100 100" version="1.1" xmlns="http://www.w3.org/2000/svg" xmlns:xlink="http://www.w3.org/1999/xlink">
    <!-- Generator: Sketch 51 (57462) - http://www.bohemiancoding.com/sketch -->
    <title>Logo</title>
    <desc>Created with Sketch.</desc>
    <defs></defs>
    <g id="Logo" stroke="none" stroke-width="1" fill="none" fill-rule="evenodd">
        <rect id="Rectangle-3" fill="#FACCD4" fill-rule="nonzero" x="0" y="-5.68434189e-14" width="100" height="100" rx="12.5"></rect>
        <g id="ebay" transform="translate(6.000000, 32.000000)" fill="#85006B" fill-rule="nonzero">
            <path d="M11.3188407,9 C5.1448131,9 0,11.6541348 0,19.6615385 C0,26.0051651 3.45951439,30 11.4782609,30 C20.9167009,30 21.5217391,23.6999999 21.5217391,23.6999999 L16.9483696,23.6999999 C16.9483696,23.6999999 15.9678008,27.0923078 11.1992754,27.0923078 C7.31544169,27.0923078 4.52203622,24.4338046 4.52203622,20.7075258 L22,20.7075258 L22,18.3692307 C22,14.6827695 19.6904561,9 11.3188407,9 Z M11.1594202,11.9884614 C14.8564277,11.9884614 17.3768116,14.2834191 17.3768116,17.7230767 L4.62318839,17.7230767 C4.62318839,14.0714594 7.91293147,11.9884614 11.1594202,11.9884614 Z" id="e"></path>
            <path d="M22.0993345,3.88431477e-16 L22.0993345,24.8918476 C22.0993345,26.3047878 22,28.2887178 22,28.2887178 L26.381847,28.2887178 C26.381847,28.2887178 26.5391264,26.8638312 26.5391264,25.5616235 C26.5391264,25.5616235 28.7040419,29 34.5906074,29 C40.789398,29 45,24.6309637 45,18.3714085 C45,12.5482346 41.1324259,7.86475127 34.6006148,7.86475127 C28.4840352,7.86475127 26.5833809,11.2179398 26.5833809,11.2179398 L26.5833809,0 L22.0993345,3.88431477e-16 Z M33.4695942,10.9435879 C37.6790552,10.9435879 40.3558103,14.1152263 40.3558103,18.3714085 C40.3558103,22.9353916 37.2642476,25.9211633 33.4996224,25.9211633 C29.0068719,25.9211633 26.5833809,22.3599195 26.5833809,18.4120534 C26.5833809,14.7334114 28.7580504,10.9435879 33.4695942,10.9435879 Z" id="b"></path>
            <path d="M55.295454,9 C46.0262876,9 45.431819,14.1250883 45.431819,14.9440593 L50.045454,14.9440593 C50.045454,14.9440593 50.2873918,11.9519482 54.977273,11.9519482 C58.0248336,11.9519482 60.386365,13.3605376 60.386365,16.068611 L60.386365,17.0325125 L54.977273,17.0325125 C47.7963194,17.0325125 44,19.1538155 44,23.4585226 C44,27.6949726 47.5076776,30 52.2478701,30 C58.7080162,30 60.7890613,26.3954101 60.7890613,26.3954101 C60.7890613,27.8291187 60.8985239,29.2419318 60.8985239,29.2419318 L65,29.2419318 C65,29.2419318 64.840908,27.4907058 64.840908,26.3703084 L64.840908,16.6861104 C64.840908,10.3363144 59.7688488,9 55.295454,9 Z M60.386365,19.9242169 L60.386365,21.209419 C60.386365,22.8856728 59.3620383,27.0530719 53.3316774,27.0530719 C50.0294723,27.0530719 48.613638,25.3888735 48.613638,23.4585226 C48.613638,19.9468333 53.3815835,19.9242169 60.386365,19.9242169 Z" id="a"></path>
            <polygon id="y" points="64 9 69.0284411 9 76.2449527 24.1658519 83.4449535 9 88 9 74.8853214 36 70.1073389 36 73.8917437 28.4733817"></polygon>
        </g>
    </g>
</svg>