<?xml version="1.0" encoding="UTF-8"?>
<svg width="743px" height="690px" viewBox="0 0 743 690" version="1.1" xmlns="http://www.w3.org/2000/svg" xmlns:xlink="http://www.w3.org/1999/xlink">
    <!-- Generator: Sketch 47 (45396) - http://www.bohemiancoding.com/sketch -->
    <title>megaphone</title>
    <desc>Created with Sketch.</desc>
    <defs>
        <rect id="path-1" x="0" y="0" width="743" height="690" rx="43"></rect>
    </defs>
    <g id="Page-1" stroke="none" stroke-width="1" fill="none" fill-rule="evenodd">
        <g id="megaphone">
            <g id="Rectangle">
                <use fill="#009EFF" fill-rule="evenodd" xlink:href="#path-1"></use>
                <rect stroke="#979797" stroke-width="1" x="0.5" y="0.5" width="742" height="689" rx="43"></rect>
            </g>
            <path d="M612,316 L566,316 C557.709,316 551,322.485367 551,330.5 C551,338.514633 557.709,345 566,345 L612,345 C620.291,345 627,338.514633 627,330.5 C627,322.485367 620.291,316 612,316 Z" id="Shape" fill="#FFFFFF" fill-rule="nonzero"></path>
            <path d="M591.605741,407.821294 L561.605678,378.321049 C555.746666,372.55965 546.253646,372.55965 540.394634,378.321049 C534.535622,384.082447 534.534622,393.417308 540.394634,399.178706 L570.394697,428.678951 C576.253709,434.44035 585.746729,434.44035 591.605741,428.678951 C597.464753,422.917553 597.464753,413.582692 591.605741,407.821294 Z" id="Shape" fill="#FFFFFF" fill-rule="nonzero"></path>
            <path d="M591.605713,231.321022 C585.746665,225.559659 576.253585,225.559659 570.394537,231.321022 L540.394287,260.821083 C534.535238,266.582445 534.535238,275.917248 540.394287,281.67861 C546.253335,287.439972 555.746415,287.440955 561.605463,281.67861 L591.605713,252.178548 C597.464762,246.417186 597.464762,237.082384 591.605713,231.321022 Z" id="Shape" fill="#FFFFFF" fill-rule="nonzero"></path>
            <path d="M222.414365,227 C202.992265,227 186.589392,239.368367 180.410718,256.5 L177.662983,256.5 C144.754807,256.5 117,282.960517 117,315.5 C117,348.039483 144.754807,374.5 177.662983,374.5 L180.410718,374.5 C186.589392,391.631633 202.992265,404 222.414365,404 L297,404 L297,227 L222.414365,227 Z" id="Shape" fill="#FFFFFF" fill-rule="nonzero"></path>
            <path d="M477,139 C460.431,139 447,152.169842 447,168.416667 L447,462.583333 C447,478.828197 460.431,492 477,492 C493.569,492 507,478.828197 507,462.583333 L507,168.416667 C507,152.169842 493.569,139 477,139 Z" id="Shape" fill="#FFFFFF" fill-rule="nonzero"></path>
            <path d="M222.833333,433.486545 C217.7544,433.486545 212.795122,432.968507 208,432 L208,506.932454 C208,531.232278 227.961711,551 252.5,551 C277.038289,551 297,531.232278 297,506.932454 L297,433.486545 L222.833333,433.486545 Z" id="Shape" fill="#FFFFFF" fill-rule="nonzero"></path>
            <path d="M402.962489,189.930891 C382.274933,210.449264 355.639211,222.517049 327,225.791946 L327,405.209035 C355.6402,408.482951 382.275922,420.551717 402.962489,441.07009 L416,454 L416,177 L402.962489,189.930891 Z" id="Shape" fill="#FFFFFF" fill-rule="nonzero"></path>
        </g>
    </g>
</svg>